<svg xmlns:dc="http://purl.org/dc/elements/1.1/" xmlns:cc="http://creativecommons.org/ns#" xmlns:rdf="http://www.w3.org/1999/02/22-rdf-syntax-ns#" xmlns:svg="http://www.w3.org/2000/svg" xmlns="http://www.w3.org/2000/svg" xmlns:sodipodi="http://sodipodi.sourceforge.net/DTD/sodipodi-0.dtd" xmlns:inkscape="http://www.inkscape.org/namespaces/inkscape" version="1.1" id="Your_Icon" x="0px" y="0px" width="100px" height="100px" viewBox="0 0 100 100" enable-background="new 0 0 100 100" xml:space="preserve" inkscape:version="0.48.4 r9939" sodipodi:docname="edit_brush_icon.svg"><metadata id="metadata3026"><rdf:RDF><cc:Work rdf:about=""><dc:format>image/svg+xml</dc:format><dc:type rdf:resource="http://purl.org/dc/dcmitype/StillImage"/><dc:title/></cc:Work></rdf:RDF></metadata><defs id="defs3024"/><sodipodi:namedview pagecolor="#ffffff" bordercolor="#666666" borderopacity="1" objecttolerance="10" gridtolerance="10" guidetolerance="10" inkscape:pageopacity="0" inkscape:pageshadow="2" inkscape:window-width="1259" inkscape:window-height="771" id="namedview3022" showgrid="false" inkscape:zoom="2.8284271" inkscape:cx="17.993944" inkscape:cy="62.862999" inkscape:window-x="0" inkscape:window-y="0" inkscape:window-maximized="0" inkscape:current-layer="Your_Icon"/>
<path style="fill-rule:evenodd;fill:#000000;fill-opacity:1;stroke:none" d="M 86.150456,4.0919106 52.565313,37.928863 66.414857,51.872836 100,18.035883 86.150456,4.0919106 z M 0,6.2952474 0,95.908089 l 89.612842,0 0,-54.422411 -15.04564,15.04564 0,24.33113 -59.521561,0 0,-59.521561 40.446962,0 L 70.538244,6.2952474 0,6.2952474 z M 48.253069,43.090966 c -3.180302,-1e-6 -6.355383,1.224757 -8.78187,3.651243 -4.852965,4.85298 -7.566662,19.376996 -19.200503,26.093799 13.887751,1.013108 26.375718,0.777452 36.764243,-8.530059 5.111628,-4.57973 4.852966,-12.71077 0,-17.56374 -2.426488,-2.426487 -5.601568,-3.651242 -8.78187,-3.651243 z" id="path3016" inkscape:connector-curvature="0"/>


</svg>